<?xml version="1.0" encoding="UTF-8"?>
<svg width="172px" height="49px" viewBox="0 0 172 49" version="1.1" xmlns="http://www.w3.org/2000/svg" xmlns:xlink="http://www.w3.org/1999/xlink">
    <!-- Generator: Sketch 63.1 (92452) - https://sketch.com -->
    <title>New logo</title>
    <desc>Created with Sketch.</desc>
    <defs>
        <polygon id="path-1" points="0 63.1315948 172 63.1315948 172 -1.16816917e-14 0 -1.16816917e-14"></polygon>
    </defs>
    <g id="Page-1" stroke="none" stroke-width="1" fill="none" fill-rule="evenodd">
        <g id="New-logo">
            <g id="Group-50">
                <path d="M145.248956,34.1961161 L151.12011,18.6191349 L160.009533,18.6191349 L147.316263,47.1430252 L142.230687,47.1430252 L129.62011,18.6191349 L138.592225,18.6191349 L145.248956,34.1961161 Z M120.069562,32.799083 C120.069562,28.9351499 117.46434,24.82502 113.288379,24.82502 C109.112831,24.82502 106.548956,28.9762512 106.548956,32.799083 C106.548956,36.662194 109.112831,40.8545265 113.288379,40.8545265 C117.46434,40.8545265 120.069562,36.662194 120.069562,32.799083 L120.069562,32.799083 Z M127.263379,47.1430252 L119.242638,47.1430252 L119.242638,44.5129531 L119.118187,44.5129531 C117.382062,46.7735245 114.363379,48.0472538 111.386869,48.0472538 C102.993187,48.0472538 98.2383788,40.4028232 98.2383788,32.6757791 C98.2383788,25.1127291 103.075879,17.5916025 111.262417,17.5916025 C114.23934,17.5916025 117.25761,18.8653317 119.242638,21.2081057 L119.242638,18.6191349 L127.263379,18.6191349 L127.263379,47.1430252 Z M52.3854942,27.7432122 C52.3854942,24.2085005 52.2614558,21.2081057 52.1374173,18.6598252 L59.6210712,18.6598252 L59.9518404,22.5644486 L60.117225,22.5644486 C61.3576096,20.7148901 63.879725,18.0026154 68.717225,18.0026154 C72.4383788,18.0026154 75.2912635,19.9339655 76.4903019,22.893259 L76.6143404,22.893259 C77.7306865,21.3725109 78.929725,20.2216746 80.3354942,19.3996486 C81.9066481,18.5365213 83.6431865,18.0026154 85.7518404,18.0026154 C91.2095327,18.0026154 95.3441481,21.8657265 95.3441481,30.3736953 L95.3441481,47.1430252 L86.7441481,47.1430252 L86.7441481,31.6889369 C86.7441481,27.5377057 85.4210712,25.1538304 82.5681865,25.1538304 C80.4595327,25.1538304 79.0951096,26.5512746 78.4335712,28.2364278 C78.2681865,28.8944596 78.1441481,29.7571759 78.1441481,30.4558979 L78.1441481,47.1430252 L69.5441481,47.1430252 L69.5441481,31.1957213 C69.5441481,27.6614206 68.2624173,25.1953427 65.4095327,25.1953427 C63.1354942,25.1953427 61.8124173,26.9622875 61.2749173,28.3597317 C60.9854942,29.0584538 60.9441481,29.8804798 60.9441481,30.6203031 L60.9441481,47.1845375 L52.3441481,47.1845375 L52.3441481,27.7432122 L52.3854942,27.7432122 Z M39.1960712,47.1430252 L48.0441481,47.1430252 L48.0441481,18.6598252 L39.1960712,18.6598252 L39.1960712,47.1430252 Z M162.531648,47.1430252 L171.379725,47.1430252 L171.379725,18.6598252 L162.531648,18.6598252 L162.531648,47.1430252 Z" id="Fill-1" fill="#006695"></path>
                <path d="M166.831731,15.6184524 C163.854808,15.6184524 161.952885,13.5222862 161.952885,10.8918031 C161.952885,8.22021864 163.9375,6.1651537 166.955769,6.1651537 C169.974038,6.1651537 171.834615,8.22021864 171.917308,10.8918031 C171.917308,13.5222862 170.015385,15.6184524 166.914423,15.6184524 L166.831731,15.6184524 Z" id="Fill-3" fill="#EF6E21"></path>
                <path d="M43.4962365,15.6184524 C40.5193135,15.6184524 38.6173904,13.5222862 38.6173904,10.8918031 C38.6173904,8.22021864 40.6020058,6.1651537 43.620275,6.1651537 C46.6385442,6.1651537 48.4991212,8.22021864 48.5818135,10.8918031 C48.5818135,13.5222862 46.6385442,15.6184524 43.5789288,15.6184524 L43.4962365,15.6184524 Z" id="Fill-5" fill="#EF6E21"></path>
                <mask id="mask-2" fill="white">
                    <use xlink:href="#path-1"></use>
                </mask>
                <g id="Clip-22"></g>
                <path d="M26.1308519,21.1259853 C26.2962365,21.2492892 26.7096981,21.4547957 27.0404673,21.6192009 C27.2885442,21.3725931 27.495275,20.9615801 26.9991212,20.5505671 C26.5856596,20.3039594 26.4616212,20.4272633 25.9241212,20.2628581 C25.9241212,20.2628581 25.5520058,20.1395542 25.2212365,19.8518451 C25.2212365,19.8518451 24.6010442,19.3997308 23.8568135,19.3586295 C24.1875827,19.6463386 24.6010442,19.975149 24.8491212,20.1806555 C25.2625827,20.5916684 25.8414288,20.9204788 26.1308519,21.1259853" id="Fill-46" fill="#EF6E21" mask="url(#mask-2)"></path>
                <path d="M34.1519644,8.05585455 C33.1596567,6.16519481 31.7538875,4.60334545 30.017349,3.41140779 C28.3221567,2.21947013 26.3375413,1.31524156 24.104849,0.780924675 C22.1202337,0.287709091 20.0115798,-8.76126877e-15 17.8202337,-8.76126877e-15 L17.654849,-8.76126877e-15 L17.3240798,-8.76126877e-15 L16.7038875,-8.76126877e-15 C14.8019644,0.0411012987 12.9000413,0.32881039 11.0394644,0.822025974 C8.97215673,1.39744416 7.11157981,2.26057143 5.49907981,3.41140779 C3.84523365,4.56224416 2.52215673,6.04189091 1.52984904,7.76814545 C1.03369519,8.59017143 0.702925962,9.4944 0.454849038,10.4808312 C0.454849038,10.5630338 0.413502885,10.6452364 0.413502885,10.6863377 C0.413502885,10.727439 0.372156731,10.7685403 0.372156731,10.8096416 C-1.40572788,19.8519273 7.07023365,22.7701195 9.05484904,23.1811325 L9.13754135,23.2633351 C9.55100288,22.8934234 10.0471567,22.6879169 10.377926,22.564613 L10.4606183,22.564613 C10.915426,22.5235117 11.3288875,22.8523221 11.6183106,23.5099429 C12.0731183,23.2222338 12.4865798,23.0989299 12.8586952,23.1811325 C13.1067721,23.2222338 13.4375413,23.386639 13.6856183,23.7565506 L13.7269644,23.7976519 L13.7269644,23.8798545 C13.8096567,24.085361 13.8096567,24.4141714 13.7269644,24.8251844 C14.3058106,25.0717922 14.677926,25.4006026 14.8019644,25.8527169 C14.8846567,26.1815273 14.8433106,26.5925403 14.6365798,26.9624519 C14.9260029,27.0446545 15.1740798,27.250161 15.3808106,27.5789714 C15.6702337,27.9899844 15.752926,28.6065039 15.4221567,29.0586182 L15.3808106,29.0997195 L15.3394644,29.1408208 C15.215426,29.2230234 15.0913875,29.3463273 14.967349,29.4285299 C14.8846567,29.5107325 14.7606183,29.5929351 14.677926,29.6751377 L14.8846567,29.8806442 C14.8846567,29.8806442 15.5875413,30.8670753 15.9183106,31.0314805 C16.2490798,31.1958857 16.6211952,31.236987 17.0346567,31.1958857 C17.2827337,31.1547844 17.4894644,30.825974 17.365426,30.6204675 L17.1586952,30.1272519 C17.0346567,29.8395429 16.8692721,29.5929351 16.9933106,29.5107325 C17.117349,29.4696312 17.1586952,29.5518338 17.2827337,29.716239 L18.0269644,30.8670753 C18.1096567,31.0725818 18.2750413,31.236987 18.4817721,31.2780883 C18.6885029,31.3602909 18.8952337,31.3602909 19.1019644,31.3191896 C19.3086952,31.2780883 19.515426,31.1958857 19.7221567,30.9903792 C19.8461952,30.8670753 19.8875413,30.6204675 19.7635029,30.4560623 L18.9365798,28.894213 C18.8538875,28.7709091 18.5644644,28.3187948 18.6885029,28.1954909 C18.8125413,28.1543896 19.1433106,28.6065039 19.267349,28.7709091 L20.3836952,30.5793662 L20.5077337,30.7026701 C20.8385029,31.0725818 21.417349,30.9903792 21.7067721,30.9492779 C21.9135029,30.9081766 22.0788875,30.825974 22.202926,30.6615688 C22.3269644,30.4971636 22.4096567,30.1683532 22.2856183,29.9628468 L21.2519644,27.9488831 C21.1692721,27.8255792 20.879849,27.3323636 21.0038875,27.250161 C21.1692721,27.1679584 21.417349,27.7433766 21.5413875,27.8255792 L22.740426,29.6751377 C22.9885029,30.1272519 23.6086952,30.3327584 24.0635029,30.0450494 C24.352926,29.8395429 24.4769644,29.6751377 24.5596567,29.1819221 C24.6010029,29.0175169 24.5183106,28.6476052 24.4356183,28.5243013 C23.277926,26.140426 21.665426,22.975626 19.6394644,21.0438649 C19.1846567,20.6328519 18.7711952,20.4273455 18.6058106,20.3862442 C17.7788875,20.920561 16.8692721,21.331574 16.0010029,21.4548779 C15.3394644,21.5781818 14.8019644,21.4137766 14.2644644,21.0849662 C13.7683106,20.7972571 13.6856183,20.221839 14.0577337,19.7697247 C14.5538875,19.1532052 15.1327337,18.7010909 15.8356183,18.166774 C10.4606183,16.646026 6.94619519,13.6867325 10.129849,10.4397299 C10.5846567,9.98761558 11.1221567,9.6177039 11.7010029,9.3710961 C12.5692721,8.96008312 13.4788875,8.67237403 14.429849,8.54907013 C16.8692721,8.17915844 18.9365798,8.26136104 20.9211952,8.79567792 C22.0788875,9.08338701 23.1125413,9.5766026 23.9808106,10.1931221 C24.8490798,10.8096416 25.5519644,11.6316675 26.0481183,12.6180987 C26.4202337,13.3579221 26.6683106,14.2210494 26.792349,15.2074805 L35.640426,15.2074805 L35.640426,14.8786701 C35.640426,12.248187 35.1442721,9.94651429 34.1519644,8.05585455" id="Fill-47" fill="#EF6E21" mask="url(#mask-2)"></path>
                <path d="M26.875,22.0302961 C25.4692308,21.5781818 24.0221154,20.0163325 22.8644231,19.2354078 C22.2028846,18.6188883 21.7894231,18.2078753 21.3346154,18.0845714 C20.6730769,17.9201662 18.8125,17.7146597 18.8125,17.7146597 C18.6057692,17.7146597 18.3576923,17.6735584 18.1096154,17.7146597 C17.7788462,17.7146597 17.4480769,17.8379636 17.1586538,18.0434701 C16.3730769,18.6188883 15.4634615,19.2354078 14.8432692,19.8930286 C14.4711538,20.2629403 14.7192308,20.920561 15.2567308,20.920561 C15.4634615,20.920561 15.6701923,20.920561 15.8769231,20.8794597 C16.7038462,20.7561558 17.6548077,20.2629403 18.3990385,19.8930286 C18.5230769,19.810826 18.6884615,19.810826 18.8538462,19.8519273 C19.2259615,19.9752312 19.5980769,20.2629403 20.0528846,20.6328519 C22.2442308,22.564613 23.5259615,25.2361974 24.9730769,28.1132883 C25.1384615,28.5243013 25.1798077,28.9353143 25.2211538,29.1819221 C25.2211538,29.3463273 25.3038462,29.4696312 25.3865385,29.5929351 C27.9086538,32.1823169 27.9086538,35.223813 25.5932692,37.4432831 C25.1384615,37.8953974 24.6009615,38.3064104 23.9807692,38.5941195 C23.1125,39.0051325 22.2028846,39.2928416 21.2519231,39.4161455 C18.8125,39.7860571 16.7451923,39.7038545 14.7605769,39.1695377 C13.6028846,38.8818286 12.5692308,38.388613 11.7009615,37.7720935 C10.8326923,37.155574 10.1298077,36.3335481 9.63365385,35.3471169 C9.26153846,34.6072935 9.01346154,33.7441662 8.93076923,32.7577351 L2.99657735e-13,32.7577351 L2.99657735e-13,33.0865455 C2.99657735e-13,35.7581299 0.496153846,38.0598026 1.52980769,39.909361 C2.52211538,41.8000208 3.92788462,43.3618701 5.66442308,44.5538078 C7.35961538,45.7457455 9.34423077,46.649974 11.5769231,47.1842909 C13.5615385,47.6775065 15.6701923,47.9652156 17.8615385,47.9652156 L18.0269231,47.9652156 L18.3576923,47.9652156 L19.1019231,47.9652156 C21.0038462,47.9241143 23.1538462,47.6364052 25.0557692,47.1431896 C27.1230769,46.5677714 29.025,45.7046442 30.6788462,44.5538078 C32.2913462,43.4029714 33.6557692,41.9233247 34.6480769,40.1559688 C35.5576923,38.5941195 36.0538462,36.744561 36.1365385,34.6894961 L36.1365385,34.5661922 C36.0538462,26.3048312 30.4721154,23.9620571 26.875,22.0302961" id="Fill-48" fill="#006695" mask="url(#mask-2)"></path>
                <path d="M14.9673904,27.9076996 C14.7193135,27.5377879 14.3885442,27.3733827 14.2231596,27.5377879 L12.8587365,28.3187126 C12.8587365,28.1132061 12.9414288,27.9488009 13.0241212,27.8665983 L14.0164288,27.003471 C14.3471981,26.715762 14.3885442,26.3458503 14.3471981,26.0581412 C14.3058519,25.893736 14.1818135,25.7293308 13.9337365,25.5649256 C13.6856596,25.4005204 13.3962365,25.4416217 13.1481596,25.6060269 L11.7423904,26.5924581 L13.1068135,25.1128113 C13.1895058,25.0306087 13.2308519,24.9484061 13.2721981,24.8662035 C13.3135442,24.7840009 13.3135442,24.660697 13.3548904,24.5784944 C13.3962365,24.249684 13.2721981,23.8797723 12.9414288,23.7975697 C12.6520058,23.6742658 12.2798904,23.7975697 11.9491212,24.0441775 C11.5356596,24.3729879 11.1221981,24.7017983 10.7087365,25.1128113 L11.2048904,24.3318866 C11.2875827,24.2085827 11.2875827,24.0852788 11.2462365,23.9619749 C11.1221981,23.6742658 10.9981596,23.4687594 10.832775,23.3454555 C10.7087365,23.2221516 10.5433519,23.2221516 10.3779673,23.2632529 C9.63373654,23.5920633 8.88950577,24.1263801 9.17892885,25.1128113 C9.30296731,25.3594191 9.55104423,25.6060269 9.88181346,25.7293308 C9.79912115,26.0170399 9.63373654,26.3869516 9.67508269,26.5924581 L9.67508269,26.6746607 C9.71642885,26.7979646 9.757775,26.9212684 9.79912115,27.0445723 L9.92315962,27.1678762 C10.0471981,27.2911801 10.1712365,27.3733827 10.295275,27.414484 L10.5846981,27.414484 L10.7500827,27.414484 C10.6673904,27.5788892 10.6260442,27.825497 10.6260442,27.9899022 C10.6260442,28.0310035 10.6260442,28.1132061 10.6673904,28.1543074 C10.7087365,28.2776113 10.7087365,28.3187126 10.832775,28.4009152 C10.9981596,28.6064217 11.3289288,28.8530295 11.9491212,29.058536 L12.1971981,29.0174347 C12.2385442,29.2640425 12.445275,29.5517516 12.5279673,29.6750555 C12.5693135,29.7161568 12.5693135,29.7161568 12.6106596,29.7572581 C13.6029673,30.579284 14.7193135,30.4148788 14.7193135,30.4148788 L14.3885442,30.0449671 C14.3471981,30.0038658 14.3058519,29.9627646 14.2645058,29.9216633 C14.1404673,29.880562 14.0164288,29.7572581 13.8096981,29.5517516 C14.3058519,29.3462451 14.6779673,29.1818399 15.0500827,28.7708269 C15.2154673,28.5242191 15.132775,28.1543074 14.9673904,27.9076996" id="Fill-49" fill="#006695" mask="url(#mask-2)"></path>
            </g>
        </g>
    </g>
</svg>